<svg xmlns="http://www.w3.org/2000/svg" width="500" height="500" viewBox="0 0 500 500"><g transform="translate(149,308)translate(106.5,35)rotate(0)translate(-106.5,-35)" opacity="1"><path transform="translate(6,0)rotate(0)" d="M39.55 53L22.29 53L22.29 50.34L24.44 50.34L24.44 50.34Q24.98 50.34 25.44 50.23L25.44 50.23L25.44 50.23Q25.90 50.12 26.26 49.78L26.26 49.78L26.26 49.78Q26.61 49.44 26.81 48.80L26.81 48.80L26.81 48.80Q27.00 48.17 27.00 47.09L27.00 47.09L27.00 35.91L13.94 35.91L13.94 47.09L13.94 47.09Q13.94 48.17 14.15 48.80L14.15 48.80L14.15 48.80Q14.36 49.44 14.70 49.78L14.70 49.78L14.70 49.78Q15.04 50.12 15.50 50.23L15.50 50.23L15.50 50.23Q15.97 50.34 16.50 50.34L16.50 50.34L18.65 50.34L18.65 53L1.39 53L1.39 50.34L3.49 50.34L3.49 50.34Q4.03 50.34 4.49 50.23L4.49 50.23L4.49 50.23Q4.96 50.12 5.31 49.78L5.31 49.78L5.31 49.78Q5.66 49.44 5.86 48.80L5.86 48.80L5.86 48.80Q6.05 48.17 6.05 47.09L6.05 47.09L6.05 23.02L6.05 23.02Q6.05 22.02 5.85 21.42L5.85 21.42L5.85 21.42Q5.64 20.82 5.29 20.50L5.29 20.50L5.29 20.50Q4.93 20.19 4.47 20.08L4.47 20.08L4.47 20.08Q4.00 19.97 3.49 19.97L3.49 19.97L1.39 19.97L1.39 17.31L18.65 17.31L18.65 19.97L16.50 19.97L16.50 19.97Q15.97 19.97 15.50 20.08L15.50 20.08L15.50 20.08Q15.04 20.19 14.70 20.53L14.70 20.53L14.70 20.53Q14.36 20.87 14.15 21.51L14.15 21.51L14.15 21.51Q13.94 22.14 13.94 23.21L13.94 23.21L13.94 32.86L27.00 32.86L27.00 23.21L27.00 23.21Q27.00 22.14 26.81 21.51L26.81 21.51L26.81 21.51Q26.61 20.87 26.26 20.53L26.26 20.53L26.26 20.53Q25.90 20.19 25.44 20.08L25.44 20.08L25.44 20.08Q24.98 19.97 24.44 19.97L24.44 19.97L22.29 19.97L22.29 17.31L39.55 17.31L39.55 19.97L37.45 19.97L37.45 19.97Q36.94 19.97 36.47 20.08L36.47 20.08L36.47 20.08Q36.01 20.19 35.66 20.53L35.66 20.53L35.66 20.53Q35.30 20.87 35.11 21.51L35.11 21.51L35.11 21.51Q34.91 22.14 34.91 23.21L34.91 23.21L34.91 47.36L34.91 47.36Q34.91 48.34 35.12 48.94L35.12 48.94L35.12 48.94Q35.33 49.53 35.68 49.84L35.68 49.84L35.68 49.84Q36.04 50.14 36.49 50.24L36.49 50.24L36.49 50.24Q36.94 50.34 37.45 50.34L37.45 50.34L39.55 50.34L39.55 53ZM59.59 53L42.33 53L42.33 50.34L44.43 50.34L44.43 50.34Q45.00 50.34 45.46 50.23L45.46 50.23L45.46 50.23Q45.92 50.12 46.26 49.78L46.26 49.78L46.26 49.78Q46.61 49.44 46.80 48.80L46.80 48.80L46.80 48.80Q47.00 48.17 47.00 47.09L47.00 47.09L47.00 23.21L47.00 23.21Q47.00 22.14 46.80 21.51L46.80 21.51L46.80 21.51Q46.61 20.87 46.26 20.53L46.26 20.53L46.26 20.53Q45.92 20.19 45.46 20.08L45.46 20.08L45.46 20.08Q45.00 19.97 44.43 19.97L44.43 19.97L42.33 19.97L42.33 17.31L59.59 17.31L59.59 19.97L57.50 19.97L57.50 19.97Q56.96 19.97 56.48 20.08L56.48 20.08L56.48 20.08Q56.01 20.19 55.66 20.53L55.66 20.53L55.66 20.53Q55.32 20.87 55.13 21.51L55.13 21.51L55.13 21.51Q54.93 22.14 54.93 23.21L54.93 23.21L54.93 47.09L54.93 47.09Q54.93 48.17 55.13 48.80L55.13 48.80L55.13 48.80Q55.32 49.44 55.66 49.78L55.66 49.78L55.66 49.78Q56.01 50.12 56.48 50.23L56.48 50.23L56.48 50.23Q56.96 50.34 57.50 50.34L57.50 50.34L59.59 50.34L59.59 53ZM96.58 34.49L96.58 34.49L96.58 34.49Q96.58 38.60 95.46 42.00L95.46 42.00L95.46 42.00Q94.34 45.41 92.10 47.85L92.10 47.85L92.10 47.85Q89.87 50.29 86.56 51.65L86.56 51.65L86.56 51.65Q83.25 53 78.88 53L78.88 53L62.38 53L62.38 50.34L64.48 50.34L64.48 50.34Q65.04 50.34 65.50 50.23L65.50 50.23L65.50 50.23Q65.97 50.12 66.31 49.78L66.31 49.78L66.31 49.78Q66.65 49.44 66.85 48.80L66.85 48.80L66.85 48.80Q67.04 48.17 67.04 47.09L67.04 47.09L67.04 23.00L67.04 23.00Q67.04 21.99 66.85 21.40L66.85 21.40L66.85 21.40Q66.65 20.80 66.30 20.48L66.30 20.48L66.30 20.48Q65.94 20.16 65.48 20.05L65.48 20.05L65.48 20.05Q65.01 19.94 64.48 19.94L64.48 19.94L62.38 19.94L62.38 17.31L78.88 17.31L78.88 17.31Q83.03 17.31 86.32 18.39L86.32 18.39L86.32 18.39Q89.60 19.48 91.88 21.64L91.88 21.64L91.88 21.64Q94.17 23.80 95.37 27.02L95.37 27.02L95.37 27.02Q96.58 30.25 96.58 34.49ZM88.13 34.49L88.13 34.49L88.13 34.49Q88.13 27.34 85.51 23.85L85.51 23.85L85.51 23.85Q82.89 20.36 77.78 20.36L77.78 20.36L74.93 20.36L74.93 49.90L77.73 49.90L77.73 49.90Q80.30 49.90 82.25 48.84L82.25 48.84L82.25 48.84Q84.20 47.78 85.51 45.77L85.51 45.77L85.51 45.77Q86.82 43.77 87.48 40.93L87.48 40.93L87.48 40.93Q88.13 38.08 88.13 34.49ZM113.33 35.86L113.33 49.95L123.34 49.95L123.34 49.95Q124.10 49.95 124.63 49.67L124.63 49.67L124.63 49.67Q125.17 49.39 125.56 48.87L125.56 48.87L125.56 48.87Q125.95 48.36 126.18 47.67L126.18 47.67L126.18 47.67Q126.42 46.97 126.54 46.14L126.54 46.14L126.93 43.80L130.40 43.80L130.03 53L100.73 53L100.73 50.34L102.83 50.34L102.83 50.34Q103.37 50.34 103.83 50.24L103.83 50.24L103.83 50.24Q104.30 50.14 104.65 49.84L104.65 49.84L104.65 49.84Q105.00 49.53 105.20 48.94L105.20 48.94L105.20 48.94Q105.40 48.34 105.40 47.36L105.40 47.36L105.40 23.19L105.40 23.19Q105.40 22.12 105.20 21.48L105.20 21.48L105.20 21.48Q105.00 20.85 104.66 20.50L104.66 20.50L104.66 20.50Q104.32 20.16 103.86 20.05L103.86 20.05L103.86 20.05Q103.39 19.94 102.83 19.94L102.83 19.94L100.73 19.94L100.73 17.31L128.49 17.31L128.69 26.51L125.20 26.51L124.95 24.14L124.95 24.14Q124.76 22.31 124.02 21.33L124.02 21.33L124.02 21.33Q123.29 20.36 121.75 20.36L121.75 20.36L113.33 20.36L113.33 32.86L125.20 32.86L125.20 35.86L113.33 35.86ZM158.64 53L140.19 53L140.19 50.34L142.53 50.34L142.53 50.34Q143.14 50.34 143.66 50.27L143.66 50.27L143.66 50.27Q144.19 50.19 144.58 49.89L144.58 49.89L144.58 49.89Q144.97 49.58 145.20 48.97L145.20 48.97L145.20 48.97Q145.43 48.36 145.43 47.31L145.43 47.31L145.43 40.35L136.18 22.60L136.18 22.60Q135.82 21.87 135.49 21.36L135.49 21.36L135.49 21.36Q135.16 20.85 134.77 20.54L134.77 20.54L134.77 20.54Q134.38 20.24 133.87 20.09L133.87 20.09L133.87 20.09Q133.37 19.94 132.64 19.94L132.64 19.94L131.98 19.94L131.98 17.31L148.73 17.31L148.73 19.94L147.88 19.94L147.88 19.94Q146.36 19.94 145.62 20.55L145.62 20.55L145.62 20.55Q144.87 21.16 144.87 22.19L144.87 22.19L144.87 22.19Q144.87 22.82 145.10 23.57L145.10 23.57L145.10 23.57Q145.34 24.31 145.63 24.95L145.63 24.95L149.34 32.30L149.34 32.30Q150.12 33.88 150.62 35.10L150.62 35.10L150.62 35.10Q151.12 36.33 151.54 37.50L151.54 37.50L151.54 37.50Q152.05 36.18 152.72 34.63L152.72 34.63L152.72 34.63Q153.39 33.08 154.22 31.39L154.22 31.39L157.13 25.41L157.13 25.41Q157.67 24.31 157.82 23.57L157.82 23.57L157.82 23.57Q157.98 22.82 157.98 22.41L157.98 22.41L157.98 22.41Q157.98 21.12 157.17 20.53L157.17 20.53L157.17 20.53Q156.35 19.94 154.69 19.94L154.69 19.94L153.54 19.94L153.54 17.31L166.63 17.31L166.63 19.94L165.67 19.94L165.67 19.94Q165.04 19.94 164.59 20.11L164.59 20.11L164.59 20.11Q164.14 20.29 163.73 20.72L163.73 20.72L163.73 20.72Q163.33 21.16 162.90 21.92L162.90 21.92L162.90 21.92Q162.48 22.68 161.89 23.85L161.89 23.85L153.39 40.40L153.39 47.24L153.39 47.24Q153.39 48.34 153.61 48.95L153.61 48.95L153.61 48.95Q153.83 49.56 154.21 49.88L154.21 49.88L154.21 49.88Q154.59 50.19 155.09 50.27L155.09 50.27L155.09 50.27Q155.59 50.34 156.18 50.34L156.18 50.34L158.64 50.34L158.64 53ZM189.67 41.26L177.51 41.26L176.07 45.55L176.07 45.55Q175.88 46.16 175.67 46.98L175.67 46.98L175.67 46.98Q175.46 47.80 175.46 48.41L175.46 48.41L175.46 48.41Q175.46 48.90 175.66 49.26L175.66 49.26L175.66 49.26Q175.85 49.63 176.17 49.86L176.17 49.86L176.17 49.86Q176.49 50.09 176.89 50.22L176.89 50.22L176.89 50.22Q177.29 50.34 177.73 50.34L177.73 50.34L179.83 50.34L179.83 53L166.82 53L166.82 50.34L167.43 50.34L167.43 50.34Q168.09 50.34 168.64 50.19L168.64 50.19L168.64 50.19Q169.19 50.05 169.67 49.64L169.67 49.64L169.67 49.64Q170.14 49.24 170.57 48.53L170.57 48.53L170.57 48.53Q171.00 47.82 171.44 46.70L171.44 46.70L182.28 17.31L189.14 17.31L199.58 46.75L199.58 46.75Q199.95 47.80 200.35 48.50L200.35 48.50L200.35 48.50Q200.76 49.19 201.23 49.59L201.23 49.59L201.23 49.59Q201.71 50.00 202.25 50.17L202.25 50.17L202.25 50.17Q202.78 50.34 203.37 50.34L203.37 50.34L204.27 50.34L204.27 53L187.77 53L187.77 50.34L189.72 50.34L189.72 50.34Q190.09 50.34 190.48 50.23L190.48 50.23L190.48 50.23Q190.87 50.12 191.17 49.89L191.17 49.89L191.17 49.89Q191.48 49.66 191.67 49.29L191.67 49.29L191.67 49.29Q191.87 48.92 191.87 48.41L191.87 48.41L191.87 48.41Q191.87 47.80 191.72 47.24L191.72 47.24L191.72 47.24Q191.58 46.68 191.43 46.26L191.43 46.26L189.67 41.26ZM188.67 38.21L186.04 30.00L186.04 30.00Q185.77 29.15 185.49 28.21L185.49 28.21L185.49 28.21Q185.21 27.27 184.92 26.29L184.92 26.29L184.92 26.29Q184.64 25.31 184.39 24.35L184.39 24.35L184.39 24.35Q184.13 23.39 183.94 22.51L183.94 22.51L183.94 22.51Q183.72 23.26 183.42 24.17L183.42 24.17L183.42 24.17Q183.13 25.07 182.80 26.02L182.80 26.02L182.80 26.02Q182.47 26.97 182.14 27.93L182.14 27.93L182.14 27.93Q181.81 28.88 181.52 29.76L181.52 29.76L178.56 38.21L188.67 38.21Z" fill="#fff"/></g><g transform="translate(132,370)translate(123.5,16.5)rotate(0)translate(-123.5,-16.5)" opacity="1"><path transform="translate(6,0)rotate(0)" d="M9.15 9.73L5.38 9.73L5.38 16.38L10.93 16.38L10.93 17.50L5.38 17.50L5.38 22.38L5.38 22.38Q5.38 22.92 5.53 23.25L5.53 23.25L5.53 23.25Q5.68 23.57 5.94 23.75L5.94 23.75L5.94 23.75Q6.19 23.92 6.54 23.98L6.54 23.98L6.54 23.98Q6.88 24.03 7.27 24.03L7.27 24.03L8.03 24.03L8.03 25L0.88 25L0.88 24.03L1.17 24.03L1.17 24.03Q1.55 24.03 1.89 23.98L1.89 23.98L1.89 23.98Q2.23 23.93 2.49 23.78L2.49 23.78L2.49 23.78Q2.75 23.62 2.90 23.31L2.90 23.31L2.90 23.31Q3.05 23.00 3.05 22.50L3.05 22.50L3.05 11.11L3.05 11.11Q3.05 10.60 2.90 10.29L2.90 10.29L2.90 10.29Q2.75 9.98 2.49 9.82L2.49 9.82L2.49 9.82Q2.23 9.65 1.89 9.60L1.89 9.60L1.89 9.60Q1.55 9.55 1.17 9.55L1.17 9.55L0.88 9.55L0.88 8.58L12.47 8.58L12.58 12.60L11.39 12.60L11.28 11.61L11.28 11.61Q11.23 11.22 11.10 10.88L11.10 10.88L11.10 10.88Q10.96 10.54 10.71 10.28L10.71 10.28L10.71 10.28Q10.46 10.03 10.07 9.88L10.07 9.88L10.07 9.88Q9.69 9.73 9.15 9.73L9.15 9.73ZM33.92 16.77L33.92 16.77L33.92 16.77Q33.92 18.67 33.45 20.23L33.45 20.23L33.45 20.23Q32.98 21.79 32.06 22.90L32.06 22.90L32.06 22.90Q31.14 24.01 29.79 24.62L29.79 24.62L29.79 24.62Q28.44 25.22 26.70 25.22L26.70 25.22L26.70 25.22Q24.87 25.22 23.51 24.62L23.51 24.62L23.51 24.62Q22.15 24.01 21.25 22.90L21.25 22.90L21.25 22.90Q20.36 21.79 19.91 20.22L19.91 20.22L19.91 20.22Q19.46 18.65 19.46 16.75L19.46 16.75L19.46 16.75Q19.46 14.84 19.91 13.28L19.91 13.28L19.91 13.28Q20.36 11.73 21.25 10.63L21.25 10.63L21.25 10.63Q22.15 9.52 23.52 8.92L23.52 8.92L23.52 8.92Q24.89 8.32 26.72 8.32L26.72 8.32L26.72 8.32Q28.46 8.32 29.80 8.92L29.80 8.92L29.80 8.92Q31.14 9.52 32.06 10.63L32.06 10.63L32.06 10.63Q32.98 11.74 33.45 13.29L33.45 13.29L33.45 13.29Q33.92 14.85 33.92 16.77ZM22.01 16.77L22.01 16.77L22.01 16.77Q22.01 18.48 22.26 19.82L22.26 19.82L22.26 19.82Q22.51 21.16 23.07 22.09L23.07 22.09L23.07 22.09Q23.64 23.01 24.53 23.50L24.53 23.50L24.53 23.50Q25.42 23.99 26.70 23.99L26.70 23.99L26.70 23.99Q27.98 23.99 28.87 23.50L28.87 23.50L28.87 23.50Q29.77 23.01 30.32 22.09L30.32 22.09L30.32 22.09Q30.88 21.16 31.13 19.82L31.13 19.82L31.13 19.82Q31.37 18.48 31.37 16.77L31.37 16.77L31.37 16.77Q31.37 15.06 31.13 13.72L31.13 13.72L31.13 13.72Q30.88 12.38 30.32 11.46L30.32 11.46L30.32 11.46Q29.77 10.54 28.89 10.05L28.89 10.05L28.89 10.05Q28.00 9.57 26.72 9.57L26.72 9.57L26.72 9.57Q25.44 9.57 24.55 10.05L24.55 10.05L24.55 10.05Q23.65 10.54 23.08 11.46L23.08 11.46L23.08 11.46Q22.51 12.38 22.26 13.72L22.26 13.72L22.26 13.72Q22.01 15.06 22.01 16.77ZM55.59 16.77L55.59 16.77L55.59 16.77Q55.59 18.67 55.12 20.23L55.12 20.23L55.12 20.23Q54.65 21.79 53.73 22.90L53.73 22.90L53.73 22.90Q52.81 24.01 51.46 24.62L51.46 24.62L51.46 24.62Q50.11 25.22 48.37 25.22L48.37 25.22L48.37 25.22Q46.54 25.22 45.18 24.62L45.18 24.62L45.18 24.62Q43.82 24.01 42.93 22.90L42.93 22.90L42.93 22.90Q42.03 21.79 41.58 20.22L41.58 20.22L41.58 20.22Q41.13 18.65 41.13 16.75L41.13 16.75L41.13 16.75Q41.13 14.84 41.58 13.28L41.58 13.28L41.58 13.28Q42.03 11.73 42.93 10.63L42.93 10.63L42.93 10.63Q43.82 9.52 45.19 8.92L45.19 8.92L45.19 8.92Q46.56 8.32 48.39 8.32L48.39 8.32L48.39 8.32Q50.14 8.32 51.47 8.92L51.47 8.92L51.47 8.92Q52.81 9.52 53.73 10.63L53.73 10.63L53.73 10.63Q54.65 11.74 55.12 13.29L55.12 13.29L55.12 13.29Q55.59 14.85 55.59 16.77ZM43.68 16.77L43.68 16.77L43.68 16.77Q43.68 18.48 43.93 19.82L43.93 19.82L43.93 19.82Q44.18 21.16 44.74 22.09L44.74 22.09L44.74 22.09Q45.31 23.01 46.20 23.50L46.20 23.50L46.20 23.50Q47.09 23.99 48.37 23.99L48.37 23.99L48.37 23.99Q49.65 23.99 50.54 23.50L50.54 23.50L50.54 23.50Q51.44 23.01 51.99 22.09L51.99 22.09L51.99 22.09Q52.55 21.16 52.80 19.82L52.80 19.82L52.80 19.82Q53.04 18.48 53.04 16.77L53.04 16.77L53.04 16.77Q53.04 15.06 52.80 13.72L52.80 13.72L52.80 13.72Q52.55 12.38 51.99 11.46L51.99 11.46L51.99 11.46Q51.44 10.54 50.56 10.05L50.56 10.05L50.56 10.05Q49.67 9.57 48.39 9.57L48.39 9.57L48.39 9.57Q47.11 9.57 46.22 10.05L46.22 10.05L46.22 10.05Q45.32 10.54 44.75 11.46L44.75 11.46L44.75 11.46Q44.18 12.38 43.93 13.72L43.93 13.72L43.93 13.72Q43.68 15.06 43.68 16.77ZM76.92 16.77L76.92 16.77L76.92 16.77Q76.92 18.65 76.44 20.18L76.44 20.18L76.44 20.18Q75.97 21.70 75.04 22.77L75.04 22.77L75.04 22.77Q74.11 23.84 72.70 24.42L72.70 24.42L72.70 24.42Q71.30 25 69.42 25L69.42 25L62.38 25L62.38 24.03L62.68 24.03L62.68 24.03Q63.07 24.03 63.41 23.98L63.41 23.98L63.41 23.98Q63.75 23.92 64.01 23.75L64.01 23.75L64.01 23.75Q64.27 23.57 64.42 23.25L64.42 23.25L64.42 23.25Q64.56 22.92 64.56 22.38L64.56 22.38L64.56 11.11L64.56 11.11Q64.56 10.60 64.41 10.29L64.41 10.29L64.41 10.29Q64.26 9.98 64.00 9.82L64.00 9.82L64.00 9.82Q63.74 9.65 63.40 9.60L63.40 9.60L63.40 9.60Q63.06 9.55 62.68 9.55L62.68 9.55L62.38 9.55L62.38 8.58L69.42 8.58L69.42 8.58Q71.20 8.58 72.59 9.13L72.59 9.13L72.59 9.13Q73.98 9.67 74.94 10.71L74.94 10.71L74.94 10.71Q75.90 11.76 76.41 13.29L76.41 13.29L76.41 13.29Q76.92 14.81 76.92 16.77ZM66.89 23.83L68.89 23.83L68.89 23.83Q70.26 23.83 71.28 23.37L71.28 23.37L71.28 23.37Q72.31 22.90 73.00 22.00L73.00 22.00L73.00 22.00Q73.68 21.10 74.02 19.79L74.02 19.79L74.02 19.79Q74.37 18.48 74.37 16.77L74.37 16.77L74.37 16.77Q74.37 13.34 73.00 11.53L73.00 11.53L73.00 11.53Q71.64 9.73 68.91 9.73L68.91 9.73L66.89 9.73L66.89 23.83ZM102.10 8.35L102.10 8.35L102.10 8.35Q103.28 8.35 104.15 8.54L104.15 8.54L104.15 8.54Q105.02 8.74 105.59 9.09L105.59 9.09L105.59 9.09Q106.17 9.43 106.46 9.91L106.46 9.91L106.46 9.91Q106.75 10.38 106.75 10.93L106.75 10.93L106.75 10.93Q106.75 11.30 106.59 11.60L106.59 11.60L106.59 11.60Q106.44 11.89 106.17 12.10L106.17 12.10L106.17 12.10Q105.90 12.31 105.54 12.42L105.54 12.42L105.54 12.42Q105.17 12.53 104.75 12.53L104.75 12.53L104.75 12.53Q104.75 12.00 104.61 11.47L104.61 11.47L104.61 11.47Q104.47 10.94 104.15 10.52L104.15 10.52L104.15 10.52Q103.83 10.10 103.31 9.83L103.31 9.83L103.31 9.83Q102.80 9.57 102.05 9.57L102.05 9.57L102.05 9.57Q100.75 9.57 99.84 10.05L99.84 10.05L99.84 10.05Q98.93 10.52 98.36 11.44L98.36 11.44L98.36 11.44Q97.78 12.35 97.53 13.70L97.53 13.70L97.53 13.70Q97.27 15.04 97.27 16.77L97.27 16.77L97.27 16.77Q97.27 18.31 97.54 19.59L97.54 19.59L97.54 19.59Q97.81 20.87 98.39 21.78L98.39 21.78L98.39 21.78Q98.97 22.70 99.88 23.20L99.88 23.20L99.88 23.20Q100.78 23.71 102.05 23.71L102.05 23.71L102.05 23.71Q102.89 23.71 103.54 23.55L103.54 23.55L103.54 23.55Q104.19 23.38 104.68 23.11L104.68 23.11L104.68 23.11Q105.17 22.84 105.55 22.49L105.55 22.49L105.55 22.49Q105.93 22.14 106.22 21.75L106.22 21.75L106.22 21.75Q106.41 21.88 106.53 22.09L106.53 22.09L106.53 22.09Q106.66 22.30 106.66 22.65L106.66 22.65L106.66 22.65Q106.66 23.09 106.36 23.55L106.36 23.55L106.36 23.55Q106.06 24.00 105.45 24.37L105.45 24.37L105.45 24.37Q104.85 24.74 103.92 24.98L103.92 24.98L103.92 24.98Q102.98 25.22 101.70 25.22L101.70 25.22L101.70 25.22Q99.98 25.22 98.68 24.62L98.68 24.62L98.68 24.62Q97.38 24.01 96.50 22.90L96.50 22.90L96.50 22.90Q95.62 21.79 95.17 20.23L95.17 20.23L95.17 20.23Q94.72 18.67 94.72 16.77L94.72 16.77L94.72 16.77Q94.72 14.90 95.19 13.35L95.19 13.35L95.19 13.35Q95.66 11.80 96.59 10.69L96.59 10.69L96.59 10.69Q97.51 9.58 98.90 8.96L98.90 8.96L98.90 8.96Q100.28 8.35 102.10 8.35ZM122.81 19.51L116.77 19.51L115.89 21.92L115.89 21.92Q115.79 22.19 115.74 22.46L115.74 22.46L115.74 22.46Q115.68 22.72 115.68 22.91L115.68 22.91L115.68 22.91Q115.68 23.50 116.06 23.76L116.06 23.76L116.06 23.76Q116.43 24.03 117.21 24.03L117.21 24.03L117.74 24.03L117.74 25L112.12 25L112.12 24.03L112.56 24.03L112.56 24.03Q112.90 24.03 113.13 23.96L113.13 23.96L113.13 23.96Q113.37 23.89 113.56 23.69L113.56 23.69L113.56 23.69Q113.75 23.48 113.92 23.14L113.92 23.14L113.92 23.14Q114.10 22.79 114.31 22.24L114.31 22.24L119.41 8.58L121.21 8.58L126.41 22.81L126.41 22.81Q126.54 23.17 126.68 23.41L126.68 23.41L126.68 23.41Q126.82 23.64 127.01 23.78L127.01 23.78L127.01 23.78Q127.20 23.92 127.45 23.98L127.45 23.98L127.45 23.98Q127.70 24.03 128.03 24.03L128.03 24.03L128.34 24.03L128.34 25L122.01 25L122.01 24.03L122.54 24.03L122.54 24.03Q123.92 24.03 123.92 22.93L123.92 22.93L123.92 22.93Q123.92 22.74 123.87 22.54L123.87 22.54L123.87 22.54Q123.82 22.34 123.73 22.08L123.73 22.08L122.81 19.51ZM122.40 18.35L120.97 14.33L120.97 14.33Q120.61 13.31 120.31 12.42L120.31 12.42L120.31 12.42Q120.02 11.52 119.82 10.69L119.82 10.69L119.82 10.69Q119.75 11.11 119.64 11.50L119.64 11.50L119.64 11.50Q119.53 11.88 119.41 12.29L119.41 12.29L119.41 12.29Q119.29 12.69 119.13 13.14L119.13 13.14L119.13 13.14Q118.97 13.58 118.77 14.12L118.77 14.12L117.21 18.35L122.40 18.35ZM153.64 25L147.51 25L147.51 24.03L147.59 24.03L147.59 24.03Q147.96 24.03 148.26 23.98L148.26 23.98L148.26 23.98Q148.56 23.93 148.77 23.78L148.77 23.78L148.77 23.78Q148.97 23.63 149.10 23.34L149.10 23.34L149.10 23.34Q149.22 23.06 149.24 22.59L149.24 22.59L149.24 10.30L143.98 25L142.73 25L137.40 10.34L137.40 22.38L137.40 22.38Q137.40 22.92 137.51 23.25L137.51 23.25L137.51 23.25Q137.62 23.57 137.84 23.75L137.84 23.75L137.84 23.75Q138.06 23.92 138.37 23.98L138.37 23.98L138.37 23.98Q138.68 24.03 139.06 24.03L139.06 24.03L139.13 24.03L139.13 25L133.81 25L133.81 24.03L134.11 24.03L134.11 24.03Q134.49 24.03 134.83 23.98L134.83 23.98L134.83 23.98Q135.17 23.93 135.43 23.78L135.43 23.78L135.43 23.78Q135.69 23.62 135.84 23.31L135.84 23.31L135.84 23.31Q135.99 23.00 135.99 22.50L135.99 22.50L135.99 11.11L135.99 11.11Q135.99 10.60 135.84 10.29L135.84 10.29L135.84 10.29Q135.69 9.98 135.43 9.82L135.43 9.82L135.43 9.82Q135.17 9.65 134.83 9.60L134.83 9.60L134.83 9.60Q134.49 9.55 134.11 9.55L134.11 9.55L133.81 9.55L133.81 8.58L139.06 8.58L143.82 21.73L148.54 8.58L153.64 8.58L153.64 9.55L153.34 9.55L153.34 9.55Q152.95 9.55 152.61 9.60L152.61 9.60L152.61 9.60Q152.26 9.66 152.01 9.83L152.01 9.83L152.01 9.83Q151.75 10.01 151.60 10.33L151.60 10.33L151.60 10.33Q151.46 10.66 151.46 11.20L151.46 11.20L151.46 22.38L151.46 22.38Q151.46 22.92 151.60 23.25L151.60 23.25L151.60 23.25Q151.75 23.57 152.01 23.75L152.01 23.75L152.01 23.75Q152.26 23.92 152.61 23.98L152.61 23.98L152.61 23.98Q152.95 24.03 153.34 24.03L153.34 24.03L153.64 24.03L153.64 25ZM167.14 25L159.99 25L159.99 24.03L160.28 24.03L160.28 24.03Q160.67 24.03 161.01 23.98L161.01 23.98L161.01 23.98Q161.36 23.92 161.62 23.75L161.62 23.75L161.62 23.75Q161.87 23.57 162.02 23.25L162.02 23.25L162.02 23.25Q162.17 22.92 162.17 22.38L162.17 22.38L162.17 11.11L162.17 11.11Q162.17 10.60 162.01 10.29L162.01 10.29L162.01 10.29Q161.86 9.98 161.60 9.82L161.60 9.82L161.60 9.82Q161.35 9.65 161.00 9.60L161.00 9.60L161.00 9.60Q160.66 9.55 160.28 9.55L160.28 9.55L159.99 9.55L159.99 8.58L166.44 8.58L166.44 8.58Q167.89 8.58 168.96 8.91L168.96 8.91L168.96 8.91Q170.03 9.24 170.72 9.87L170.72 9.87L170.72 9.87Q171.42 10.49 171.76 11.38L171.76 11.38L171.76 11.38Q172.10 12.26 172.10 13.39L172.10 13.39L172.10 13.39Q172.10 14.41 171.78 15.35L171.78 15.35L171.78 15.35Q171.46 16.30 170.73 17.02L170.73 17.02L170.73 17.02Q170.00 17.75 168.83 18.18L168.83 18.18L168.83 18.18Q167.65 18.61 165.94 18.61L165.94 18.61L164.49 18.61L164.49 22.50L164.49 22.50Q164.49 23.00 164.64 23.31L164.64 23.31L164.64 23.31Q164.79 23.62 165.05 23.78L165.05 23.78L165.05 23.78Q165.31 23.93 165.65 23.98L165.65 23.98L165.65 23.98Q166.00 24.03 166.38 24.03L166.38 24.03L167.14 24.03L167.14 25ZM164.49 9.68L164.49 17.52L165.71 17.52L165.71 17.52Q166.76 17.52 167.50 17.30L167.50 17.30L167.50 17.30Q168.24 17.08 168.71 16.59L168.71 16.59L168.71 16.59Q169.18 16.11 169.40 15.34L169.40 15.34L169.40 15.34Q169.62 14.57 169.62 13.48L169.62 13.48L169.62 13.48Q169.62 12.51 169.43 11.80L169.43 11.80L169.43 11.80Q169.24 11.09 168.81 10.61L168.81 10.61L168.81 10.61Q168.39 10.14 167.71 9.91L167.71 9.91L167.71 9.91Q167.03 9.68 166.05 9.68L166.05 9.68L164.49 9.68ZM188.29 19.51L182.25 19.51L181.38 21.92L181.38 21.92Q181.28 22.19 181.22 22.46L181.22 22.46L181.22 22.46Q181.16 22.72 181.16 22.91L181.16 22.91L181.16 22.91Q181.16 23.50 181.54 23.76L181.54 23.76L181.54 23.76Q181.92 24.03 182.69 24.03L182.69 24.03L183.22 24.03L183.22 25L177.60 25L177.60 24.03L178.04 24.03L178.04 24.03Q178.38 24.03 178.61 23.96L178.61 23.96L178.61 23.96Q178.85 23.89 179.04 23.69L179.04 23.69L179.04 23.69Q179.23 23.48 179.41 23.14L179.41 23.14L179.41 23.14Q179.58 22.79 179.79 22.24L179.79 22.24L184.89 8.58L186.69 8.58L191.89 22.81L191.89 22.81Q192.02 23.17 192.16 23.41L192.16 23.41L192.16 23.41Q192.30 23.64 192.49 23.78L192.49 23.78L192.49 23.78Q192.69 23.92 192.93 23.98L192.93 23.98L192.93 23.98Q193.18 24.03 193.52 24.03L193.52 24.03L193.82 24.03L193.82 25L187.50 25L187.50 24.03L188.02 24.03L188.02 24.03Q189.41 24.03 189.41 22.93L189.41 22.93L189.41 22.93Q189.41 22.74 189.36 22.54L189.36 22.54L189.36 22.54Q189.31 22.34 189.22 22.08L189.22 22.08L188.29 19.51ZM187.88 18.35L186.45 14.33L186.45 14.33Q186.09 13.31 185.80 12.42L185.80 12.42L185.80 12.42Q185.50 11.52 185.31 10.69L185.31 10.69L185.31 10.69Q185.23 11.11 185.12 11.50L185.12 11.50L185.12 11.50Q185.02 11.88 184.89 12.29L184.89 12.29L184.89 12.29Q184.77 12.69 184.61 13.14L184.61 13.14L184.61 13.14Q184.45 13.58 184.25 14.12L184.25 14.12L182.69 18.35L187.88 18.35ZM213.14 25L211.50 25L202.88 11.75L202.88 22.38L202.88 22.38Q202.88 22.92 203.03 23.25L203.03 23.25L203.03 23.25Q203.18 23.57 203.43 23.75L203.43 23.75L203.43 23.75Q203.69 23.92 204.04 23.98L204.04 23.98L204.04 23.98Q204.38 24.03 204.77 24.03L204.77 24.03L205.07 24.03L205.07 25L199.30 25L199.30 24.03L199.59 24.03L199.59 24.03Q199.98 24.03 200.32 23.98L200.32 23.98L200.32 23.98Q200.67 23.92 200.92 23.75L200.92 23.75L200.92 23.75Q201.18 23.57 201.33 23.25L201.33 23.25L201.33 23.25Q201.47 22.92 201.47 22.38L201.47 22.38L201.47 11.11L201.47 11.11Q201.47 10.60 201.32 10.29L201.32 10.29L201.32 10.29Q201.17 9.98 200.91 9.82L200.91 9.82L200.91 9.82Q200.65 9.65 200.31 9.60L200.31 9.60L200.31 9.60Q199.97 9.55 199.59 9.55L199.59 9.55L199.30 9.55L199.30 8.58L203.51 8.58L211.74 21.29L211.74 11.11L211.74 11.11Q211.74 10.60 211.59 10.29L211.59 10.29L211.59 10.29Q211.44 9.98 211.18 9.82L211.18 9.82L211.18 9.82Q210.92 9.65 210.58 9.60L210.58 9.60L210.58 9.60Q210.23 9.55 209.85 9.55L209.85 9.55L209.55 9.55L209.55 8.58L215.32 8.58L215.32 9.55L215.03 9.55L215.03 9.55Q214.64 9.55 214.29 9.60L214.29 9.60L214.29 9.60Q213.95 9.66 213.69 9.83L213.69 9.83L213.69 9.83Q213.44 10.01 213.29 10.33L213.29 10.33L213.29 10.33Q213.14 10.66 213.14 11.20L213.14 11.20L213.14 25ZM231.39 25L224.23 25L224.23 24.03L224.76 24.03L224.76 24.03Q225.14 24.03 225.49 23.98L225.49 23.98L225.49 23.98Q225.83 23.93 226.09 23.78L226.09 23.78L226.09 23.78Q226.35 23.62 226.50 23.31L226.50 23.31L226.50 23.31Q226.65 23.00 226.65 22.50L226.65 22.50L226.65 18.15L222.39 10.76L222.39 10.76Q222.20 10.43 222.03 10.20L222.03 10.20L222.03 10.20Q221.86 9.97 221.68 9.83L221.68 9.83L221.68 9.83Q221.49 9.68 221.27 9.61L221.27 9.61L221.27 9.61Q221.04 9.55 220.75 9.55L220.75 9.55L220.46 9.55L220.46 8.58L226.78 8.58L226.78 9.55L225.93 9.55L225.93 9.55Q225.62 9.55 225.42 9.60L225.42 9.60L225.42 9.60Q225.22 9.66 225.11 9.76L225.11 9.76L225.11 9.76Q225.00 9.86 224.96 10.00L224.96 10.00L224.96 10.00Q224.92 10.13 224.92 10.28L224.92 10.28L224.92 10.28Q224.92 10.60 225.06 10.93L225.06 10.93L225.06 10.93Q225.20 11.25 225.33 11.50L225.33 11.50L227.03 14.58L227.03 14.58Q227.43 15.29 227.72 15.98L227.72 15.98L227.72 15.98Q228.00 16.67 228.19 17.21L228.19 17.21L228.19 17.21Q228.29 16.96 228.44 16.66L228.44 16.66L228.44 16.66Q228.59 16.35 228.78 16.01L228.78 16.01L228.78 16.01Q228.96 15.67 229.16 15.30L229.16 15.30L229.16 15.30Q229.37 14.94 229.57 14.58L229.57 14.58L231.04 11.94L231.04 11.94Q231.26 11.55 231.36 11.19L231.36 11.19L231.36 11.19Q231.46 10.84 231.46 10.56L231.46 10.56L231.46 10.56Q231.46 10.05 231.10 9.80L231.10 9.80L231.10 9.80Q230.74 9.55 230.07 9.55L230.07 9.55L229.40 9.55L229.40 8.58L235.02 8.58L235.02 9.55L234.75 9.55L234.75 9.55Q234.50 9.55 234.28 9.63L234.28 9.63L234.28 9.63Q234.06 9.72 233.84 9.92L233.84 9.92L233.84 9.92Q233.61 10.13 233.37 10.47L233.37 10.47L233.37 10.47Q233.13 10.82 232.84 11.33L232.84 11.33L228.97 18.15L228.97 22.38L228.97 22.38Q228.97 22.92 229.12 23.25L229.12 23.25L229.12 23.25Q229.27 23.57 229.52 23.75L229.52 23.75L229.52 23.75Q229.78 23.92 230.12 23.98L230.12 23.98L230.12 23.98Q230.47 24.03 230.85 24.03L230.85 24.03L231.39 24.03L231.39 25Z" fill="#ffffff"/></g><g transform="translate(268,142)translate(47,47)rotate(0)translate(-47,-47) scale(0.9400047000235001,0.9400047000235001)" opacity="1"><defs class="defs"/><path transform="translate(1.6431300764452317e-14,0.011000000000000565)" d="M96.74,11.197c-1.402,-1.401 -3.148,-2.396 -5.048,-2.894c-0.498,-1.9 -1.493,-3.646 -2.895,-5.047c-2.104,-2.106 -4.905,-3.267 -7.882,-3.267c-2.979,0 -5.778,1.161 -7.884,3.267c-2.106,2.105 -3.266,4.904 -3.265,7.882c0,2.138 0.597,4.183 1.712,5.945l-5.891,5.892c-2.201,-0.833 -4.552,-1.287 -6.977,-1.287c-5.261,0 -10.208,2.049 -13.929,5.77l-10.202,10.205c-1.077,-0.112 -2.161,-0.168 -3.24,-0.168c-8.351,0 -16.198,3.25 -22.098,9.15c-12.188,12.188 -12.188,32.021 0,44.209c5.905,5.905 13.755,9.157 22.105,9.157c8.351,0 16.201,-3.252 22.105,-9.157c6.667,-6.667 9.944,-16.008 8.981,-25.337l10.206,-10.206c3.72,-3.719 5.769,-8.666 5.769,-13.927c0,-2.425 -0.454,-4.776 -1.288,-6.979l5.892,-5.891c1.764,1.116 3.809,1.714 5.946,1.714c2.979,0 5.777,-1.16 7.883,-3.266c4.346,-4.345 4.346,-11.418 0,-15.765zM93.251,23.474c-1.174,1.174 -2.733,1.82 -4.394,1.82c-1.659,0 -3.221,-0.647 -4.395,-1.82c-0.964,-0.964 -2.525,-0.964 -3.489,0l-6.4,6.4c-0.612,-0.847 -1.279,-1.663 -2.033,-2.417c-0.755,-0.754 -1.571,-1.42 -2.419,-2.035l6.401,-6.401c0.463,-0.462 0.723,-1.09 0.723,-1.745c0,-0.654 -0.26,-1.283 -0.723,-1.746c-1.174,-1.173 -1.819,-2.732 -1.819,-4.392c0,-1.66 0.646,-3.22 1.819,-4.393c1.173,-1.174 2.733,-1.821 4.394,-1.821c1.658,0 3.219,0.646 4.393,1.821c1.038,1.038 1.676,2.418 1.795,3.887c0.097,1.206 1.055,2.163 2.261,2.26c1.468,0.118 2.848,0.755 3.886,1.793c2.421,2.424 2.422,6.366 0,8.789z" fill="#fff" class="fill c1"/></g><g transform="translate(144,147)translate(56.5,36.5)rotate(62.19791729912765)translate(-56.5,-36.5) scale(1.2219809965235924,1.2219809965235924)" opacity="1"><defs class="defs"/><path transform="translate(-3.763500000000005,-20.15099999999999)" d="M21.11,48.188c-1.941,0 -3.521,1.58 -3.521,3.521c0,1.941 1.58,3.521 3.521,3.521c1.941,0 3.521,-1.579 3.521,-3.521c0,-1.942 -1.579,-3.521 -3.521,-3.521zM21.11,53.89c-1.203,0 -2.182,-0.979 -2.182,-2.181c0,-1.203 0.979,-2.182 2.182,-2.182c1.203,0 2.181,0.979 2.181,2.182c0.001,1.202 -0.978,2.181 -2.181,2.181zM95.988,70.322c-0.08,-0.065 -8.035,-6.616 -8.005,-15.688c0.03,-9.151 4.501,-14.99 4.547,-15.048c0.18,-0.23 0.188,-0.551 0.023,-0.792c-0.165,-0.241 -0.469,-0.348 -0.747,-0.261c-0.13,0.039 -3.202,0.991 -6.432,3.092c-3.831,2.491 -6.231,5.554 -7.017,8.925c-3.557,-3.656 -16.797,-15.977 -33.656,-15.977c-6.407,0 -11.768,1.267 -13.9,1.852c0.996,-4.813 9.073,-13.804 20.098,-14.837c-1.938,2.327 -3.212,6.802 -3.212,9.763c0,0.37 0.299,0.67 0.669,0.67c0.37,0 0.67,-0.3 0.67,-0.67c0,-3.575 2.097,-9.227 4.162,-9.893c0.313,-0.102 0.507,-0.416 0.456,-0.742c-0.052,-0.325 -0.333,-0.565 -0.662,-0.565c-13.392,0 -23.613,11.46 -23.624,17.196c0,0.214 0.102,0.415 0.274,0.542c0.173,0.126 0.396,0.162 0.601,0.096c0.064,-0.021 6.538,-2.073 14.468,-2.073c19.075,0 33.444,16.357 33.586,16.523c0.175,0.201 0.451,0.279 0.709,0.2c0.255,-0.081 0.438,-0.306 0.464,-0.572c0.643,-6.409 7.476,-10.093 10.86,-11.537c-1.424,2.47 -3.656,7.404 -3.678,14.101c-0.022,6.788 3.959,12.116 6.484,14.811c-4.422,-1.471 -13.025,-5.235 -13.65,-12.388c-0.023,-0.26 -0.195,-0.483 -0.44,-0.571c-0.248,-0.091 -0.521,-0.026 -0.704,0.159c-0.102,0.104 -10.32,10.39 -21.035,13.822c-0.353,0.112 -0.547,0.489 -0.434,0.842c0.091,0.284 0.354,0.465 0.638,0.465c0.067,0 0.136,-0.01 0.204,-0.031c9.237,-2.958 17.834,-10.581 20.639,-13.24c0.846,3.867 3.883,7.271 8.865,9.904c4.11,2.173 8.047,3.059 8.212,3.096c0.304,0.065 0.613,-0.084 0.748,-0.363c0.136,-0.279 0.061,-0.615 -0.181,-0.811zM64.887,77.521c-7.879,-3.291 -12.963,-9.521 -13.267,-16.263c-0.011,-0.231 -0.141,-0.442 -0.345,-0.556c-0.202,-0.111 -0.45,-0.112 -0.653,0.003c-3.524,1.987 -5.627,5.182 -5.627,8.547c0,0.37 0.3,0.67 0.669,0.67c0.37,0 0.67,-0.3 0.67,-0.67c0,-2.624 1.458,-5.064 4.038,-6.817c0.744,6.354 5.354,12.147 12.384,15.591c-1.272,0.32 -2.603,0.483 -3.972,0.483c-4.896,0 -9.367,-2.168 -11.392,-5.522c-0.129,-0.214 -0.372,-0.336 -0.614,-0.322c-1.725,0.104 -3.071,0.151 -4.367,0.151c-5.468,0 -10.752,-0.884 -15.725,-2.627c3.495,-4.385 5.41,-9.832 5.41,-15.444c0,-5.931 -2.137,-11.681 -6.017,-16.189c-0.183,-0.213 -0.479,-0.289 -0.742,-0.19c-14.193,5.304 -21.171,15.572 -21.461,16.006c-0.15,0.226 -0.15,0.519 0,0.744c0.08,0.119 1.997,2.964 5.853,6.463c3.211,2.911 6.775,5.378 10.593,7.332c0.328,0.17 0.732,0.038 0.901,-0.29c0.168,-0.33 0.039,-0.733 -0.291,-0.901c-3.712,-1.901 -7.179,-4.301 -10.303,-7.133c-2.933,-2.661 -4.732,-4.969 -5.374,-5.843c1.378,-1.869 8.108,-10.328 20.11,-14.958c3.48,4.21 5.391,9.503 5.391,14.958c0,5.613 -2.024,11.051 -5.701,15.312c-0.143,0.166 -0.196,0.392 -0.142,0.604c0.054,0.211 0.209,0.384 0.414,0.461c5.38,2.013 11.127,3.034 17.083,3.034c1.223,0 2.486,-0.041 4.053,-0.131c2.35,3.55 7.132,5.823 12.32,5.823c2.132,0 4.177,-0.364 6.082,-1.083c0.256,-0.097 0.429,-0.341 0.433,-0.614c0.006,-0.275 -0.157,-0.524 -0.411,-0.629zM41.726,41.057v-1.06c0,-0.371 -0.3,-0.67 -0.669,-0.67c-0.37,0 -0.67,0.299 -0.67,0.67v1.06c0,0.37 0.3,0.67 0.67,0.67c0.369,0 0.669,-0.3 0.669,-0.67zM43.906,41.727c0.37,0 0.67,-0.3 0.67,-0.67v-1.06c0,-0.371 -0.3,-0.67 -0.67,-0.67c-0.37,0 -0.669,0.299 -0.669,0.67v1.06c-0.001,0.37 0.299,0.67 0.669,0.67zM46.755,41.727c0.37,0 0.67,-0.3 0.67,-0.67v-1.06c0,-0.371 -0.3,-0.67 -0.67,-0.67c-0.37,0 -0.67,0.299 -0.67,0.67v1.06c0,0.37 0.3,0.67 0.67,0.67zM49.604,41.727c0.37,0 0.67,-0.3 0.67,-0.67v-1.06c0,-0.371 -0.3,-0.67 -0.67,-0.67c-0.37,0 -0.67,0.299 -0.67,0.67v1.06c0,0.37 0.3,0.67 0.67,0.67zM52.454,41.727c0.37,0 0.67,-0.3 0.67,-0.67v-1.06c0,-0.371 -0.3,-0.67 -0.67,-0.67c-0.37,0 -0.67,0.299 -0.67,0.67v1.06c0,0.37 0.3,0.67 0.67,0.67zM43.236,45.656c0,0.37 0.3,0.67 0.669,0.67c0.37,0 0.67,-0.3 0.67,-0.67v-1.061c0,-0.37 -0.3,-0.67 -0.67,-0.67c-0.37,0 -0.669,0.3 -0.669,0.67zM46.085,45.656c0,0.37 0.3,0.67 0.67,0.67c0.37,0 0.67,-0.3 0.67,-0.67v-1.061c0,-0.37 -0.3,-0.67 -0.67,-0.67c-0.37,0 -0.67,0.3 -0.67,0.67zM48.934,45.656c0,0.37 0.3,0.67 0.67,0.67c0.37,0 0.67,-0.3 0.67,-0.67v-1.061c0,-0.37 -0.3,-0.67 -0.67,-0.67c-0.37,0 -0.67,0.3 -0.67,0.67zM51.784,45.656c0,0.37 0.3,0.67 0.67,0.67c0.37,0 0.67,-0.3 0.67,-0.67v-1.061c0,-0.37 -0.3,-0.67 -0.67,-0.67c-0.37,0 -0.67,0.3 -0.67,0.67zM55.303,46.326c0.371,0 0.67,-0.3 0.67,-0.67v-1.061c0,-0.37 -0.299,-0.67 -0.67,-0.67c-0.37,0 -0.669,0.3 -0.669,0.67v1.061c0,0.37 0.299,0.67 0.669,0.67zM46.085,50.254c0,0.371 0.3,0.669 0.67,0.669c0.37,0 0.67,-0.299 0.67,-0.669v-1.06c0,-0.37 -0.3,-0.67 -0.67,-0.67c-0.37,0 -0.67,0.3 -0.67,0.67zM48.934,50.254c0,0.371 0.3,0.669 0.67,0.669c0.37,0 0.67,-0.299 0.67,-0.669v-1.06c0,-0.37 -0.3,-0.67 -0.67,-0.67c-0.37,0 -0.67,0.3 -0.67,0.67zM51.784,50.254c0,0.371 0.3,0.669 0.67,0.669c0.37,0 0.67,-0.299 0.67,-0.669v-1.06c0,-0.37 -0.3,-0.67 -0.67,-0.67c-0.37,0 -0.67,0.3 -0.67,0.67zM54.634,50.254c0,0.371 0.299,0.669 0.669,0.669c0.371,0 0.67,-0.299 0.67,-0.669v-1.06c0,-0.37 -0.299,-0.67 -0.67,-0.67c-0.37,0 -0.669,0.3 -0.669,0.67z" fill="#fff" class="fill c1"/></g><g transform="translate(144,123)translate(112,93)rotate(0)translate(-112,-93) scale(2.4888888888888885,2.4888888888888885)" opacity="1"><defs class="defs"/><path transform="translate(-5,-9)" d="M54,36v-27h-8v27h-41l16.1,48h57.7l16.2,-48zM73.2,76h-46.4l-10.8,-32h68z" fill="#fff" class="fill c1"/></g><g transform="translate(194,228)translate(26,30)rotate(0)translate(-26,-30) scale(0.09071876258344558,0.09071876258344558)" opacity="1"><defs class="defs"><linearGradient id="linearGradient_5_c1" class="linearGradient1" gradientTransform="translate(0.5,0.5) rotate(270) translate(-0.5,-0.5)" x1="50%" y1="0%" x2="50%" y2="100%"><stop id="stop1" offset="0%" class="linearGradientColor1" stop-color="#FFDD64"/><stop id="stop2" offset="100%" class="linearGradientColor2" stop-color="#FF8F00"/></linearGradient></defs><path transform="translate(-19,-94.59999999999998)" d="M305.6,765.6c-158,0 -286.6,-128.6 -286.6,-286.7c0,-158.1 128.6,-286.7 286.7,-286.7c9.1,0 16.5,7.4 16.5,16.5c0,9.1 -7.4,16.5 -16.5,16.5c-139.9,0.1 -253.7,113.9 -253.7,253.7c0,139.8 113.8,253.6 253.6,253.6c139.8,0 253.6,-113.8 253.6,-253.6c0,-93.1 -50.9,-178.6 -132.8,-223c-8,-4.4 -11,-14.4 -6.6,-22.4c4.4,-8 14.4,-11 22.4,-6.6c92.5,50.3 150,146.8 150,252c0.1,158.1 -128.5,286.7 -286.6,286.7zM315.6,309.4c-6.5,0 -13.2,-0.3 -19.9,-0.8c-8,-0.6 -14.4,-6.9 -15.1,-14.9c-0.3,-3.4 -7.2,-83.6 45.9,-141.8c34.6,-38 86,-57.3 152.7,-57.3h4.9c4.4,0.1 8.6,1.9 11.7,5.1c3.1,3.2 4.7,7.5 4.6,11.9c-0.2,1.9 -8,197.8 -184.8,197.8zM313.3,276.4c62.4,0.8 106.5,-26.7 132.6,-81.5c12.1,-25.4 17.4,-50.8 19.7,-67c-50.2,2.3 -88.7,17.8 -114.5,46c-31.4,34.2 -37.1,79.7 -37.8,102.5zM378.4,497.1c0,-11.10092 8.99908,-20.1 20.1,-20.1c11.10092,0 20.1,8.99908 20.1,20.1c0,11.10092 -8.99908,20.1 -20.1,20.1c-11.10092,0 -20.1,-8.99908 -20.1,-20.1zM458,469.3c0,-11.10092 8.99908,-20.1 20.1,-20.1c11.10092,0 20.1,8.99908 20.1,20.1c0,11.10092 -8.99908,20.1 -20.1,20.1c-11.10092,0 -20.1,-8.99908 -20.1,-20.1zM446.5,551.7c0,-11.10092 8.99908,-20.1 20.1,-20.1c11.10092,0 20.1,8.99908 20.1,20.1c0,11.10092 -8.99908,20.1 -20.1,20.1c-11.10092,0 -20.1,-8.99908 -20.1,-20.1z" fill="#fff" class="fill c1"/></g><g transform="translate(244,217)translate(38.5,35.5)rotate(2.906300649315198)translate(-38.5,-35.5) scale(0.8555555555555557,0.8555555555555557)" opacity="1"><defs class="defs"/><path transform="translate(-5,-8.828999999999999)" d="M16.278,45.251c-0.227,-3.52 0.184,-7.083 1.624,-10.166c0.716,-1.548 1.786,-2.85 2.79,-4.167c1.041,-1.304 2.18,-2.556 3.61,-3.617l-0.054,-0.167c-0.943,0.074 -1.838,0.434 -2.647,0.897c-0.817,0.462 -1.554,1.052 -2.224,1.71c-1.356,1.322 -2.163,3.084 -2.782,4.812c-1.246,3.498 -1.255,7.255 -0.491,10.719zM23.01,48.18l0.175,-0.028c-0.296,-3.348 -0.149,-6.733 0.839,-9.835c0.488,-1.556 1.313,-2.938 2.034,-4.345c0.75,-1.407 1.617,-2.759 2.673,-4.106l-0.095,-0.15c-1.695,0.606 -3.039,1.889 -4.077,3.326c-1.057,1.454 -1.539,3.219 -1.902,4.92c-0.726,3.434 -0.476,6.94 0.353,10.218zM26.044,77.121c-1.803,1.318 -3.485,2.814 -5.332,4.111c-3.687,2.594 -7.621,4.863 -11.714,6.854l0.069,0.16c4.312,-1.492 8.471,-3.468 12.415,-5.832c1.964,-1.189 3.977,-2.361 5.685,-3.936c1.694,-1.564 3.314,-3.305 4.342,-5.427l-0.141,-0.108c-1.764,1.486 -3.529,2.83 -5.324,4.178zM37.629,38.317c0.985,3.102 1.136,6.487 0.838,9.835l0.174,0.028c0.831,-3.278 1.082,-6.784 0.353,-10.219c-0.363,-1.701 -0.843,-3.464 -1.899,-4.92c-1.038,-1.436 -2.382,-2.72 -4.078,-3.326l-0.093,0.15c1.054,1.347 1.922,2.7 2.672,4.106c0.722,1.409 1.546,2.79 2.033,4.346zM40.962,30.918c1.002,1.317 2.071,2.617 2.789,4.167c1.44,3.083 1.851,6.646 1.623,10.166l0.175,0.023c0.764,-3.465 0.756,-7.223 -0.492,-10.719c-0.62,-1.728 -1.425,-3.49 -2.781,-4.812c-0.67,-0.657 -1.408,-1.249 -2.225,-1.71c-0.808,-0.464 -1.703,-0.823 -2.646,-0.898l-0.054,0.167c1.429,1.06 2.569,2.312 3.611,3.616zM67.977,30.545c-0.116,5.578 4.056,7.875 6.936,8.858c2.228,-1.641 3.353,-5.905 2.24,-8.858c1.184,1.968 2.097,0 2.097,0c0,0 2.081,7.777 -1.476,9.892c2.859,1.035 9.045,1.411 13.941,0c-1.641,4.642 -10.497,5.856 -14.563,3.56c-2.829,6.245 -7.09,8.529 -13.323,3.832c5.579,2.849 7.22,-1.864 8.952,-5.8c-3.842,-1.642 -6.655,-9.188 -4.804,-11.484zM20.785,24.766c3.121,0 5.886,-0.519 7.097,-3.461c1.211,-2.941 2.358,-12.476 2.358,-12.476h1.172c0,0 1.145,9.533 2.357,12.476c1.212,2.943 3.977,3.461 7.098,3.461c3.809,0 11.079,2.943 11.079,11.252c0,8.311 -5.717,16.464 -21.119,16.464c-15.401,0 -21.121,-8.153 -21.121,-16.464c0.001,-8.309 7.271,-11.252 11.079,-11.252zM5,90.697c4.032,-4.952 4.032,-30.654 28.438,-19.748c3.265,26.488 -18.858,19.091 -28.438,19.748zM34.784,69.616c-8.954,-8.372 1.185,-11.556 4.186,-17.135c6.737,14.113 -2.644,13.795 -3.695,16.745c12.054,-4.788 11.826,6.778 14.325,11.11c-8.058,-1.538 -15.649,2.132 -14.816,-10.72zM71.318,83.037c-13.076,0 -23.678,-10.502 -23.678,-23.458c0,-11.321 8.097,-20.765 18.866,-22.971c0.813,2.25 2.26,4.656 4.16,6.093c-1.171,2.639 -2.144,4.229 -3.763,4.331c-1.466,0.093 -3.524,-0.362 -4.957,-0.723c0.681,4.019 5.759,5.685 7.954,5.685c3.236,0 5.938,-1.965 8.047,-5.847c1.272,0.422 2.762,0.646 4.339,0.646c2.56,0 5.341,-0.597 7.512,-1.861c3.246,4.016 5.202,9.102 5.202,14.649c-0.003,12.954 -10.604,23.456 -23.682,23.456zM38.475,73.01c-0.606,-0.783 -1.173,-1.586 -1.668,-2.525l-0.116,0.019c-0.137,1.117 0.271,2.216 0.809,3.164c0.546,0.967 1.413,1.692 2.274,2.344c0.869,0.653 1.828,1.171 2.827,1.556c1.007,0.365 2.059,0.583 3.098,0.672l0.022,-0.115c-2.023,-0.491 -3.88,-1.471 -5.342,-2.835c-0.738,-0.687 -1.287,-1.52 -1.904,-2.28zM37.232,65.514c0.517,-0.962 0.737,-2.043 0.995,-3.086c0.51,-2.094 0.789,-4.228 0.801,-6.363l-0.117,-0.008c-0.161,1.044 -0.397,2.077 -0.67,3.095c-0.257,1.02 -0.559,2.026 -0.916,3.009c-0.348,0.986 -0.837,1.909 -1.171,2.887c-0.338,0.984 -0.703,1.943 -0.995,3.009l0.098,0.066c0.845,-0.729 1.472,-1.644 1.975,-2.609z" fill="#ffffff" class="fill c1"/></g></svg>